<?xml version="1.0" encoding="utf-8"?>
<!-- Svg Vector Icons : http://www.onlinewebfonts.com/icon -->
<!DOCTYPE svg PUBLIC "-//W3C//DTD SVG 1.1//EN" "http://www.w3.org/Graphics/SVG/1.1/DTD/svg11.dtd">
<svg version="1.1" xmlns="http://www.w3.org/2000/svg" xmlns:xlink="http://www.w3.org/1999/xlink" x="0px" y="0px" viewBox="0 0 1000 1000" enable-background="new 0 0 1000 1000" xml:space="preserve">
<metadata> Svg Vector Icons : http://www.onlinewebfonts.com/icon </metadata>
<g><path d="M559.9,931.7c-1.3,0.2-2.6,0.4-3.9,0.6C558.7,931.9,559.8,931.7,559.9,931.7z"/><path d="M443.9,932.2c-0.8-0.1-1.5-0.2-2.3-0.3C439.5,931.6,436.7,931.3,443.9,932.2z"/><path d="M443.9,932.2c-0.8-0.1-1.5-0.2-2.3-0.3C439.5,931.6,436.7,931.3,443.9,932.2z"/><path d="M559.9,931.7c-1.3,0.2-2.6,0.4-3.9,0.6C558.7,931.9,559.8,931.7,559.9,931.7z"/><path d="M443.9,932.2c-0.8-0.1-1.5-0.2-2.3-0.3C439.5,931.6,436.7,931.3,443.9,932.2z"/><path d="M559.9,931.7c-1.3,0.2-2.6,0.4-3.9,0.6C558.7,931.9,559.8,931.7,559.9,931.7z"/><path d="M890.2,204.1C825.3,119.7,735.4,57.4,632.7,28.4C529.1-0.9,415,5.2,315.4,46.3c-98.1,40.5-181.1,111.2-236,202.2c-55.3,91.8-78.9,202.3-66,308.7c12.2,100.6,54.7,195,122.1,270.4c4.1,4.6,8.4,9.2,12.7,13.7c8.8,9.1,18,17.9,27.5,26.3c68.8,60.8,155.2,102,245.9,116.1c108.8,16.9,220.5-2,316.9-55.5c30.6-17,59.3-37.4,85.6-60.6c14.1-12.5,27.5-25.8,40.2-39.8l0,0c33.2-36.9,60.9-78.9,81.3-124c29-64,44.2-133.3,44.3-203.6C989.8,393.9,955,288.4,890.2,204.1z M791.6,823.5c-4.4,4-8.9,7.9-13.5,11.8c-2.3,1.9-4.6,3.8-6.9,5.7c-1,0.8-4.4,3.5-5.9,4.7c0.7-0.5,1.4-1,2.1-1.6c-3.3,2.5-3.3,2.5-2.1,1.6c-9.2,7-18.8,13.7-28.5,20c-21.1,13.6-43.3,25.5-66.3,35.5c-0.3,0.1-0.6,0.3-1,0.4c0.7-0.3,1.3-0.5,2-0.8c-6.6,2.8-4,1.7-2,0.8c-0.7,0.3-1.5,0.6-2.2,0.9c-2.8,1.1-5.6,2.3-8.5,3.4c-6.2,2.4-12.4,4.6-18.6,6.7c-12.1,4.1-24.4,7.6-36.8,10.7c-12.5,3.1-25.2,5.6-38,7.6c-1.8,0.3-3.6,0.6-5.4,0.8c-0.1,0-1.2,0.2-3.9,0.6c1.3-0.2,2.6-0.4,3.9-0.6c0.4-0.1-5.9,0.8-7.5,0.9c-6.8,0.8-13.6,1.4-20.5,1.8c-26.5,1.9-53.2,1.3-79.6-1.3c-3.1-0.3-6.3-0.7-9.4-1.1c-0.3,0-0.8-0.1-1.2-0.2c0.8,0.1,1.5,0.2,2.3,0.3c-7.2-1-4.5-0.6-2.3-0.3c-0.8-0.1-1.6-0.2-2.4-0.3c-6.7-1-13.3-2.1-20-3.4c-12.6-2.4-25.2-5.4-37.5-8.9c-12.3-3.4-24.4-7.4-36.3-11.9c-4.7-1.7-9.3-3.6-13.9-5.5c1,0.4,0.7,0.3-3-1.2c1,0.4,2,0.8,3,1.2c-1.3-0.6-5.1-2.2-6.2-2.7c-3.2-1.4-6.4-2.9-9.6-4.4c-22.7-10.7-44.4-23.4-65-37.6c-4.9-3.4-9.8-6.9-14.6-10.5c-0.8-0.6-1.6-1.2-2.4-1.8c0.2,0.2,0.4,0.3,0.7,0.5c3.1,2.4,1.4,1.1,0,0c-0.5-0.4-1.1-0.8-1.8-1.4c0.4,0.3,0.8,0.6,1.1,0.9c-0.1-0.1-0.2-0.2-0.3-0.3c-2.7-2.2-5.5-4.3-8.1-6.6c-7-5.8-13.8-11.7-20.5-17.9v0c1.7-2.4,3.5-4.8,5.3-7.2c0.4-0.6,0.9-1.1,1.3-1.7c-1.3,1.7-2.7,3.5,1.4-1.9c-0.5,0.6-0.9,1.2-1.4,1.9c0.3-0.4,0.6-0.8,0.8-1c4-5.1,8.2-10,12.4-14.9c8.2-9.4,16.8-18.3,25.9-26.9c8.3-7.9,17-15.3,26-22.5c-1.1,0.9-1.1,0.8,2.3-1.8c-0.8,0.6-1.5,1.2-2.3,1.8c1.3-1,4.2-3.2,5.1-3.9c2.4-1.8,4.8-3.5,7.3-5.2c5.3-3.7,10.7-7.3,16.2-10.8c10.6-6.7,21.5-12.8,32.7-18.5c5.4-2.7,10.8-5.3,16.4-7.8c1.4-0.6,2.7-1.2,4.1-1.8c-0.3,0.1-0.6,0.2-0.9,0.4c-5.2,2.2,6.1-2.7,1-0.4c0,0,0,0-0.1,0c3-1.2,6-2.4,9-3.6c23.9-9.2,48.7-15.9,74-20.2c3.1-0.5,6.2-1,9.2-1.5c0.1,0,0.2,0,0.3,0c-0.5,0.1-0.9,0.1-1.4,0.2c1.4-0.2,2.4-0.3,3.1-0.4c1.5-0.2,2.5-0.3,0,0c-0.6,0.1-1.3,0.2-1.8,0.2c1.1-0.1,2.2-0.3,3.3-0.4c6.8-0.8,13.6-1.4,20.4-1.9c13.3-0.9,26.7-1,40-0.6c6.4,0.2,12.7,0.6,19,1.1c3.1,0.3,6.3,0.6,9.4,0.9c1.6,0.2,3.1,0.4,4.7,0.5c0.4,0,0.8,0.1,1.1,0.1c-0.2,0-0.4-0.1-0.6-0.1c-4.7-0.7,5.9,0.7,0.6,0.1c12.6,1.8,25.1,4.2,37.5,7.3c12.4,3,24.6,6.7,36.7,10.9c5.7,2,11.4,4.2,17,6.5c0.5,0.2,0.9,0.4,1.4,0.6c-1.7-0.7-2.8-1.2,2.8,1.2c-0.9-0.4-1.9-0.8-2.8-1.2c0.7,0.3,1.4,0.6,1.9,0.8c3.2,1.4,6.4,2.9,9.6,4.4c22.7,10.6,44.2,23.5,64.4,38.3c1.5,1.1,3.1,2.3,4.6,3.5c-0.9-0.7-0.6-0.5,2.6,1.9c-0.9-0.7-1.7-1.3-2.6-1.9c1.2,0.9,4.3,3.4,5.3,4.1c5,4.1,9.9,8.3,14.8,12.6c9.3,8.3,18.1,17,26.6,26.2c3.7,4,7.3,8.1,10.9,12.3c1.9,2.3,3.8,4.6,5.7,6.9c0.7,0.8,2.7,3.4,3.8,4.8c-0.5-0.7-1-1.4-1.6-2.1c2.8,3.7,2.6,3.4,1.6,2.1c2.2,2.9,4.3,5.8,6.4,8.7C795.1,820.2,792.8,822.4,791.6,823.5z M405.6,346.8c0.8-0.7,1.7-1.4,2.5-2c0,0,0.1-0.1,0.1-0.1c5.2-3.9,10.6-7.4,16.2-10.6c5.2-3,10.5-5.7,16-8.2c0.2-0.1,0.5-0.2,0.8-0.3c0.8-0.3,1.6-0.7,2.4-1c3.3-1.3,6.7-2.4,10-3.5c5.8-1.9,11.8-3.4,17.8-4.6c2.8-0.6,5.6-1.1,8.4-1.5c2-0.2,3.9-0.4,5.9-0.6c6.3-0.5,12.7-0.6,19.1-0.5c3.2,0.1,6.3,0.3,9.5,0.5c1.6,0.1,3.1,0.3,4.7,0.4c0.4,0,0.7,0.1,1,0.1c12.5,1.9,24.7,5.2,36.4,9.7c0.7,0.3,1.4,0.6,2.2,0.9c0.4,0.2,0.8,0.3,1,0.5c2.7,1.2,5.4,2.6,8.1,3.9c5.8,2.9,11.3,6.3,16.7,9.8c2.7,1.8,5.3,3.6,7.8,5.5c1.5,1.2,3,2.4,4.4,3.7c5.3,4.5,10.2,9.4,14.9,14.4c2.4,2.5,4.6,5.2,6.8,7.9c0.3,0.3,0.6,0.8,1,1.3c0.7,0.9,1.3,1.8,1.9,2.7c4.1,5.7,7.7,11.6,11.1,17.7c1.7,3.1,3.3,6.2,4.8,9.3c0.6,1.3,1.2,2.5,1.8,3.8c0.1,0.2,0.2,0.4,0.3,0.7c2.6,6.6,4.8,13.4,6.6,20.2c0.9,3.5,1.7,7,2.4,10.5c0.3,1.5,1.1,6.9,1.3,8.3c0.7,6.2,1,12.5,1,18.8c0,6.3-0.4,12.7-1,19c0,0.3-0.1,0.6-0.1,1c-0.1,0.8-0.3,1.7-0.4,2.5c-0.6,3.6-1.3,7.1-2.1,10.6c-1.4,6-3.1,11.8-5.1,17.6c-0.9,2.7-1.9,5.3-3,8c-0.8,1.7-1.5,3.4-2.3,5c-2.6,5.4-5.5,10.6-8.6,15.7c-1.6,2.5-3.2,5-4.9,7.5c-0.9,1.3-4.2,5.6-4.9,6.6c-7.1,8.7-15.2,16.7-23.8,24c-0.8,0.7-1.7,1.4-2.5,2c-0.1,0-0.1,0.1-0.2,0.1c-2.4,1.8-4.8,3.5-7.3,5.1c-5.4,3.6-11,6.8-16.7,9.8c-2.7,1.4-5.4,2.7-8.1,3.9c-0.2,0.1-0.5,0.2-0.8,0.3c-0.8,0.3-1.6,0.7-2.5,1c-6.1,2.4-12.5,4.3-18.8,6c-5.7,1.5-11.6,2.7-17.4,3.6c-1.4,0.2-2.9,0.3-4.3,0.4c-3.7,0.3-7.4,0.5-11.1,0.6c-1.1,0-2.1,0-3.2,0c-1.2,0-2.5,0-3.7,0c-4.1-0.1-8.1-0.2-12.1-0.5c-1.3-0.1-5.3-0.6-6.9-0.7c-2.5-0.4-5-0.8-7.4-1.3c-6-1.2-11.9-2.8-17.8-4.6c-2.9-0.9-5.8-1.9-8.6-3c-1.3-0.5-2.5-1-3.7-1.5c-0.3-0.1-0.5-0.2-0.9-0.4c-11.4-5.1-22.1-11.5-32.2-18.9c0,0-0.1-0.1-0.1-0.1c-0.8-0.7-1.7-1.4-2.5-2.1c-2.3-1.9-4.5-3.9-6.7-5.9c-4.8-4.3-9.2-9-13.5-13.8c-1.1-1.3-2.2-2.6-3.3-3.9c-0.2-0.3-3.5-4.5-4.3-5.7c-3.7-5.3-7.1-10.8-10.2-16.5c-1.5-2.6-2.8-5.3-4.1-8c-0.6-1.1-2.2-4.8-2.8-6.1c-2-5.1-3.7-10.3-5.3-15.5c-1.7-5.9-3.1-11.9-4.2-18c-0.2-1.3-0.4-2.6-0.6-3.8c-0.4-3.5-0.7-7.1-0.9-10.6c-0.4-6.4-0.3-12.7,0-19.1c0.2-3.1,0.4-6.3,0.7-9.4c0-0.4,0.1-0.8,0.2-1.3c0.2-1.2,0.4-2.5,0.6-3.7c2-11.3,5.2-22.4,9.3-33.1c0.3-0.6,2.3-5.3,2.9-6.6c1.3-2.7,2.7-5.4,4.1-8c3.1-5.7,6.6-11.2,10.2-16.5c0.7-1,2.8-3.8,3.8-5.1c1.3-1.5,2.5-3.1,3.8-4.6c4.2-4.9,8.8-9.4,13.5-13.8C401,350.7,403.3,348.7,405.6,346.8z M407.6,345.1C403.7,348.2,406.1,346.3,407.6,345.1L407.6,345.1z M592.4,583.6C596.3,580.4,593.9,582.4,592.4,583.6L592.4,583.6z M407.1,583.2C405.7,582.1,404.2,580.9,407.1,583.2L407.1,583.2z M933.6,540c-0.5,6.2-1.2,12.4-2,18.6c0-0.3,0.1-0.6,0.1-0.9c0.8-5.8-0.9,6.9-0.1,1.1c0-0.1,0-0.1,0-0.2c-0.2,1.3-0.4,2.5-0.5,3.8c-0.5,3.6-1.1,7.2-1.8,10.8c-4.4,25.3-11,50.1-19.5,74.3c-2,5.7-4.2,11.4-6.4,17.1c-0.4,1.1-1.8,4.4-2.5,6c0.4-0.9,0.8-1.8,1.2-2.7c-1.7,4-1.7,4.1-1.2,2.7c-1,2.3-2,4.7-3.1,7c-5.2,11.4-10.9,22.7-17,33.6c-6.1,10.9-12.6,21.6-19.6,32c-3.3,5-6.8,9.9-10.3,14.7c-1.8,2.4-3.5,4.8-5.3,7.2c-0.1,0.2-0.3,0.4-0.5,0.7c0.4-0.5,0.8-1,1.2-1.5c-4.5,5.8-2.5,3.2-1.2,1.5c-0.8,1.1-1.7,2.1-2.5,3.2c-3,3.8-6.2,7.6-9.3,11.3l0,0c0,0,0,0,0,0l0,0c-10-13.2-20.8-25.9-32.4-38c-50.3-52.2-113.8-89.8-182.7-110.1c15.8-11.1,30-24.5,41.7-39.5c29-36.9,45.2-81.4,45.4-128.5c-0.2-56.6-23.9-111.7-65.5-150.3c-41.6-38.6-99-59-155.7-54.3c-55.9,4.7-109.2,31.8-144,76.1c-17.9,22.8-31.3,48.2-38.7,76.4c-7.7,29.3-8.1,59.4-3.2,89.2c8.7,52.8,40.7,99.8,83.7,130.7c-60.2,17.9-116.3,49.3-163.5,91.6C199.3,741,182,760,166.6,780.3c-2.2-2.6-4.3-5.1-6.4-7.7c-1.8-2.1-3.5-4.3-5.2-6.5c0.1,0.1,0.1,0.2,0.2,0.3c3.4,4.4-4.1-5.2-0.6-0.8c0.1,0.2,0.3,0.3,0.4,0.5c-1.1-1.5-2.3-3-3.4-4.5c-14.9-20.1-28.1-41.4-39.6-63.6c-2.8-5.4-5.4-10.8-8-16.3c-1.3-2.7-2.5-5.5-3.8-8.3c-0.6-1.3-1.2-2.7-1.8-4c2.4,5.7-1.9-4.4-0.1-0.1c0,0,0,0.1,0.1,0.1c-0.1-0.2-0.1-0.4-0.2-0.6c-4.8-11.7-9.1-23.7-13-35.8c-7.8-24.3-13.4-49.4-17-74.6c0,0.1,0,0.3,0,0.4c0.7,5.8-1-6.9-0.1-1.1c0,0.2,0.1,0.4,0.1,0.7c-0.2-1.4-0.4-2.9-0.5-4.3c-0.4-3.1-0.7-6.3-1-9.4c-0.7-6.8-1.1-13.7-1.5-20.6c-0.7-13.3-0.8-26.7-0.3-40c0.4-13.2,1.5-26.4,3-39.5c0.1-1.1,0.3-2.2,0.4-3.3c0,0.2-0.1,0.5-0.1,0.7c-0.6,4.6-0.3,2,0,0c0.1-0.6,0.2-1.3,0.3-2.1c-0.1,0.5-0.1,0.9-0.2,1.4c0-0.1,0-0.2,0-0.3c0.4-3.1,0.9-6.2,1.4-9.3c1.1-6.6,2.3-13.3,3.7-19.9c5.2-25,12.6-49.5,21.9-73.3c1-2.6,2.1-5.2,3.2-7.9c-0.1,0.1-0.1,0.2-0.2,0.4c-2.2,5.2,2.6-6.2,0.4-0.9c-0.1,0.2-0.2,0.4-0.2,0.6c0.5-1.3,1.1-2.5,1.7-3.8c2.6-6,5.4-11.9,8.3-17.8c5.5-11.2,11.6-22.2,18-33c6.4-10.7,13.3-21.1,20.6-31.3c1.7-2.4,3.5-4.8,5.3-7.2c0.8-1.1,1.6-2.2,2.5-3.3c-0.1,0.2-0.3,0.3-0.4,0.5c-3.4,4.4,4-5.3,0.6-0.8c-0.1,0.1-0.2,0.2-0.2,0.3c3.9-4.9,7.8-9.8,11.9-14.6c16.1-19,33.8-36.6,52.7-52.7c4.5-3.9,9.2-7.7,13.9-11.4c0.1-0.1,0.2-0.1,0.3-0.2c-0.4,0.3-0.7,0.5-1.1,0.8c1.1-0.9,2-1.5,2.5-1.9c1-0.8,1.7-1.3,0,0c-0.5,0.4-1,0.8-1.5,1.1c0.8-0.6,1.7-1.3,2.5-1.9c2.8-2.1,5.6-4.2,8.4-6.2c10.1-7.3,20.6-14.1,31.3-20.6c10.7-6.5,21.8-12.5,33-18c5.4-2.7,10.9-5.2,16.4-7.7c1.1-0.5,4.8-2.1,6.2-2.7c-1,0.4-2,0.8-3,1.2c3.8-1.6,4-1.7,3-1.2c2.3-0.9,4.6-1.9,6.9-2.8c23.8-9.4,48.3-16.6,73.3-21.9c6.1-1.3,12.2-2.4,18.3-3.5c3.1-0.5,6.2-1,9.3-1.5c0.3,0,0.6-0.1,0.8-0.1c-1.2,0.2-0.9,0.1,3.8-0.5c-1.3,0.2-2.5,0.4-3.8,0.5c1.1-0.1,3.4-0.4,4.3-0.6c13.1-1.6,26.3-2.6,39.5-3c13.3-0.5,26.7-0.3,40,0.3c6.3,0.3,12.7,0.8,19,1.4c3.1,0.3,6.3,0.6,9.4,1c1.6,0.2,3.1,0.4,4.7,0.6c0.4,0,0.7,0.1,1,0.1c-0.2,0-0.3,0-0.5-0.1c-4.7-0.7,6,0.7,0.5,0.1c25.4,3.5,50.4,9.3,74.8,17c12.1,3.8,24,8.2,35.8,13c0.1,0,0.2,0.1,0.3,0.1c-0.4-0.2-0.8-0.4-1.2-0.5c1.4,0.6,2.3,1,3,1.3c1.2,0.5,1.9,0.8,0,0c-0.6-0.2-1.2-0.5-1.8-0.7c1,0.4,2,0.8,2.9,1.3c2.8,1.2,5.5,2.5,8.3,3.7c5.9,2.7,11.8,5.6,17.6,8.6c22.3,11.4,43.5,24.7,63.6,39.6c0.9,0.6,3.4,2.6,4.8,3.7c-0.7-0.5-1.4-1.1-2-1.6c3.7,2.8,3.4,2.7,2,1.6c1.7,1.3,3.3,2.6,5,4c5,4.1,10,8.2,14.8,12.5c9.4,8.2,18.3,16.8,27,25.7c8.7,8.9,16.9,18.2,24.9,27.8c1.9,2.3,3.8,4.6,5.6,7c0.4,0.5,0.8,1,1.2,1.5c-1.2-1.6-2.4-3.1,1.6,2c-0.5-0.7-1.1-1.3-1.6-2c0.4,0.5,0.7,0.9,0.9,1.2c3.9,5.2,7.7,10.4,11.4,15.8c14.3,20.6,26.8,42.4,37.6,65c2.2,4.5,4.2,9.1,6.2,13.7c-0.2-0.5-0.3-0.7-0.3-0.7c0,0.1,0.5,1,1.5,3.5c0,0,0,0,0,0c0,0,0,0,0,0c-0.4-0.9-0.8-1.9-1.2-2.8c0.6,1.5,2.1,5,2.5,6.1c1.3,3.3,2.6,6.6,3.8,9.9c4.5,11.9,8.4,24,11.9,36.3c5.5,19.6,9.7,39.6,12.6,59.8c-0.1-0.6-0.1-1.2-0.2-1.7c0.6,4.7,0.8,5.5,0.3,2.6c0-0.3-0.1-0.6-0.1-0.9c0.1,1,0.2,2,0.4,2.9c0.3,2.6,0.6,5.2,0.9,7.8c0.5,5.2,1,10.5,1.3,15.8c0.7,10.6,1.1,21.3,1.1,31.9C935.3,513.5,934.8,526.8,933.6,540z"/><path d="M559.9,931.7c-1.3,0.2-2.6,0.4-3.9,0.6C558.7,931.9,559.8,931.7,559.9,931.7z"/><path d="M443.9,932.2c-0.8-0.1-1.5-0.2-2.3-0.3C439.5,931.6,436.7,931.3,443.9,932.2z"/><path d="M721.8,744.7c0.9,0.6,1.7,1.3,2.6,1.9C721.2,744.2,720.9,744,721.8,744.7z"/><path d="M548.1,672.5c0.2,0,0.4,0.1,0.6,0.1C554,673.2,543.4,671.9,548.1,672.5z"/><path d="M787.2,809.4c0.5,0.7,1,1.4,1.6,2.1C789.8,812.9,790,813.1,787.2,809.4z"/><path d="M452.5,672.4C455,672.1,453.9,672.2,452.5,672.4L452.5,672.4z"/><path d="M767.3,844.1c-0.7,0.5-1.4,1-2.1,1.6C764.1,846.6,764.1,846.6,767.3,844.1z"/><path d="M331.6,902c-1-0.4-2-0.8-3-1.2C332.2,902.3,332.6,902.4,331.6,902z"/><path d="M671.4,900.8c-0.7,0.3-1.3,0.5-2,0.8C667.4,902.4,664.9,903.5,671.4,900.8z"/><path d="M449.3,672.9c0.5-0.1,0.9-0.1,1.4-0.2c0.5-0.1,1.2-0.2,1.8-0.2C451.7,672.5,450.7,672.7,449.3,672.9z"/><path d="M357.3,698.4c0.3-0.1,0.6-0.2,0.9-0.4c0,0,0,0,0.1,0C363.5,695.7,352.1,700.6,357.3,698.4z"/><path d="M234.4,845.5C235.9,846.6,237.5,847.8,234.4,845.5L234.4,845.5z"/><path d="M276.5,746c0.8-0.6,1.5-1.2,2.3-1.8C275.4,746.8,275.4,746.9,276.5,746z"/><path d="M234.4,845.5c-0.2-0.2-0.5-0.4-0.7-0.5c-0.4-0.3-0.8-0.6-1.1-0.9C233.4,844.7,234,845.1,234.4,845.5z"/><path d="M211.4,811.3c0.5-0.6,0.9-1.2,1.4-1.9C208.7,814.8,210.1,812.9,211.4,811.3z"/><path d="M641.2,697.8c0.9,0.4,1.9,0.8,2.8,1.2C638.4,696.6,639.5,697.1,641.2,697.8z"/><path d="M407.6,345.1C406.1,346.3,403.7,348.2,407.6,345.1L407.6,345.1z"/><path d="M592.4,583.6C593.9,582.4,596.3,580.4,592.4,583.6L592.4,583.6z"/><path d="M407.1,583.2C404.2,580.9,405.7,582.1,407.1,583.2L407.1,583.2z"/><path d="M931.8,557.8c0,0.3-0.1,0.6-0.1,0.9c0,0.1,0,0.1,0,0.2C930.9,564.7,932.6,552,931.8,557.8z"/><path d="M902.1,667.9c-0.4,0.9-0.8,1.8-1.2,2.7C900.4,671.9,900.4,671.9,902.1,667.9z"/><path d="M667.7,98.1c0.4,0.2,0.8,0.4,1.2,0.5c0.5,0.2,1.2,0.5,1.8,0.7C670,99.1,669.1,98.7,667.7,98.1z"/><path d="M764.2,153.9c0.7,0.5,1.4,1.1,2,1.6C767.6,156.5,767.8,156.7,764.2,153.9z"/><path d="M328.5,99.6c1-0.4,2-0.8,3-1.2C332.6,97.9,332.3,98,328.5,99.6z"/><path d="M846.3,764.4c-0.4,0.5-0.8,1-1.2,1.5C843.8,767.6,841.9,770.1,846.3,764.4z"/><path d="M557.6,68.4c0.2,0,0.3,0,0.5,0.1C563.6,69.1,552.9,67.7,557.6,68.4z"/><path d="M670.7,99.3C672.6,100.2,671.9,99.8,670.7,99.3L670.7,99.3z"/><path d="M844.7,234c0.5,0.7,1.1,1.3,1.6,2C842.3,230.8,843.5,232.4,844.7,234z"/><path d="M902.1,332.5c-0.4-0.9-0.8-1.9-1.2-2.8c-0.2-0.5-0.3-0.7-0.3-0.7c0-0.1,0.1,0.2,0.3,0.7C901.3,330.6,901.7,331.6,902.1,332.5C902.1,332.5,902.1,332.5,902.1,332.5z"/><path d="M902.1,332.5c-1-2.4-1.5-3.4-1.5-3.5c0,0,0.1,0.2,0.3,0.7C901.3,330.6,901.7,331.6,902.1,332.5z"/><path d="M931.5,440c0.1,0.6,0.1,1.2,0.2,1.7c0,0.3,0.1,0.6,0.1,0.9C932.2,445.6,932.1,444.7,931.5,440z"/><path d="M440.1,68.7c1.3-0.2,2.5-0.4,3.8-0.5C439.2,68.8,439,68.9,440.1,68.7z"/><path d="M68.2,442.1C68,444.1,67.6,446.7,68.2,442.1L68.2,442.1z"/><path d="M98.5,669.4c0,0,0-0.1,0-0.1C96.6,665,100.9,675.1,98.5,669.4z"/><path d="M68.3,558.8c0-0.1,0-0.3,0-0.4c0-0.2-0.1-0.4-0.1-0.7C67.3,552,69.1,564.7,68.3,558.8z"/><path d="M235.1,154.4C236.8,153.1,236.2,153.6,235.1,154.4L235.1,154.4z"/><path d="M155.2,766.4c-0.1-0.1-0.1-0.2-0.2-0.3c-0.1-0.2-0.3-0.3-0.4-0.5C151.1,761.2,158.6,770.8,155.2,766.4z"/><path d="M232.6,156.3c0.4-0.3,0.7-0.5,1.1-0.8c0.4-0.3,1-0.8,1.5-1.1C234.6,154.8,233.8,155.4,232.6,156.3z"/><path d="M833.3,780.4L833.3,780.4L833.3,780.4L833.3,780.4z"/><path d="M154.6,234.8c0.1-0.2,0.3-0.3,0.4-0.5c0.1-0.1,0.2-0.2,0.2-0.3C158.6,229.6,151.1,239.2,154.6,234.8z"/><path d="M98.4,331.1c0.1-0.1,0.1-0.2,0.2-0.4c0.1-0.2,0.2-0.4,0.2-0.6C101,324.9,96.2,336.3,98.4,331.1z"/><path d="M68.2,442.1c0-0.3,0.1-0.5,0.1-0.7c0.1-0.5,0.1-0.9,0.2-1.4C68.4,440.8,68.3,441.5,68.2,442.1z"/><path d="M902.1,332.5c-1.1-2.5-1.5-3.4-1.5-3.5C900.6,329.1,901.1,330.1,902.1,332.5C902.1,332.5,902.1,332.5,902.1,332.5z"/></g>
</svg>