<?xml version="1.0" encoding="utf-8"?>
<!-- Svg Vector Icons : http://www.onlinewebfonts.com/icon -->
<!-- credits to: <a href="http://www.onlinewebfonts.com">oNline Web Fonts</a> -->
<!-- this icon: https://www.onlinewebfonts.com/icon/530027 -->
<!-- more svg icons at: https://www.onlinewebfonts.com/icon/ -->
<!DOCTYPE svg PUBLIC "-//W3C//DTD SVG 1.1//EN" "http://www.w3.org/Graphics/SVG/1.1/DTD/svg11.dtd">
<svg version="1.1" xmlns="http://www.w3.org/2000/svg" xmlns:xlink="http://www.w3.org/1999/xlink" x="0px" y="0px" viewBox="0 0 1000 1000" enable-background="new 0 0 1000 1000" xml:space="preserve">
<metadata> Svg Vector Icons : http://www.onlinewebfonts.com/icon </metadata>
<metadata> Freddy Loves This!!! </metadata>
<metadata>no-spaces-here</metadata>
<g><g transform="translate(0.000000,512.000000) scale(0.100000,-0.100000)"><path d="M4109.7,5001.8c-447.9-24.9-796.4-55.5-1206-105.3C1265,4689.8,304.1,4270.6,129.9,3681c-34.5-116.8-40.2-283.3-11.5-384.8c13.4-45.9,603-796.3,1837.7-2335.4l1818.6-2266.5v-1475.9v-1474l53.6-105.3c90-180,296.7-298.7,658.5-375.2c199.1-42.1,779.1-47.9,982.1-9.6c344.6,65.1,585.8,189.5,689.1,356.1l57.4,93.8l5.7,1495.1l5.7,1495.1L8043.6,962.7c1225.2,1525.7,1824.3,2289.5,1837.7,2335.4c44,158.9,7.7,407.7-82.3,555.1c-105.3,174.2-354.2,380.9-616.4,511.1c-618.3,310.1-1577.4,511.1-2967.2,620.2C5880.4,5009.5,4490.6,5021,4109.7,5001.8z M6253.7,4370.1c1904.7-139.7,3093.5-490.1,3028.4-894c-34.5-210.6-377.1-398.2-1018.4-557.1c-2287.6-570.5-6703.9-338.8-7442.8,390.5c-321.6,315.9,130.2,627.9,1230.9,849.9c591.5,118.7,1173.5,181.9,2201.4,237.4C4490.6,4410.3,5985.7,4391.2,6253.7,4370.1z"/></g></g>
</svg>